<svg xmlns="http://www.w3.org/2000/svg" viewBox="0 0 24 24" role="img" aria-labelledby="waTitle">
  <title id="waTitle">WhatsApp</title>
  <circle cx="12" cy="12" r="12" fill="#25D366"/>
  <path fill="#ffffff" d="M17.472 14.382c-.297-.149-1.758-.867-2.03-.967-.273-.099-.472-.149-.671.15-.199.297-.768.967-.941 1.165-.173.199-.347.223-.644.074-.297-.149-1.255-.462-2.39-1.475-.883-.788-1.48-1.761-1.653-2.059-.173-.297-.018-.458.13-.606.134-.133.298-.347.447-.52.151-.173.199-.297.299-.496.099-.198.05-.372-.025-.52-.074-.149-.671-1.617-.92-2.218-.242-.582-.487-.503-.671-.513l-.573-.01c-.199 0-.52.074-.793.372-.273.297-1.04 1.016-1.04 2.479 0 1.462 1.065 2.877 1.213 3.074.149.198 2.095 3.2 5.076 4.487 2.981 1.289 2.981.859 3.523.805.542-.053 1.758-.719 2.006-1.413.248-.695.248-1.29.173-1.414-.074-.124-.273-.198-.57-.347z"/>
</svg>
